REM DIRINDEX 1\2\6,1\2\7,1\2\8,1\2\9,1\3\10,1\3\11,1\4\12,1\4\13,1\4\14,1\5\15,1\5\16,1\5\17
REM DIRNAME folder01,folder02,folder03,folder04,folder05,folder06,folder07,folder08,folder09,folder10,folder11,folder12,folder13,folder14,folder15,folder16,folder17
TITLE ""
FILE "1900_2_sec03_0279_0300.mp3" MP3
  TRACK 01 AUDIO
    TITLE "0:"
    INDEX 01 00:00:00
  TRACK 02 AUDIO
    TITLE "12:cjc020_2652"
    INDEX 01 00:00:17
  TRACK 03 AUDIO
    TITLE "0:"
    INDEX 01 00:01:62
  TRACK 04 AUDIO
    TITLE "13:cjc020_2653"
    INDEX 01 00:02:61
  TRACK 05 AUDIO
    TITLE "0:"
    INDEX 01 00:04:05
  TRACK 06 AUDIO
    TITLE "14:cjc020_2654"
    INDEX 01 00:04:11
  TRACK 07 AUDIO
    TITLE "0:"
    INDEX 01 00:07:23
  TRACK 08 AUDIO
    TITLE "13:cjc020_2655"
    INDEX 01 00:08:03
  TRACK 09 AUDIO
    TITLE "0:"
    INDEX 01 00:09:10
  TRACK 10 AUDIO
    TITLE "14:cjc020_2656"
    INDEX 01 00:09:12
  TRACK 11 AUDIO
    TITLE "0:"
    INDEX 01 00:10:23
  TRACK 12 AUDIO
    TITLE "13:cjc020_2657"
    INDEX 01 00:11:05
  TRACK 13 AUDIO
    TITLE "0:"
    INDEX 01 00:12:14
  TRACK 14 AUDIO
    TITLE "14:cjc020_2658"
    INDEX 01 00:12:18
  TRACK 15 AUDIO
    TITLE "0:"
    INDEX 01 00:14:54
  TRACK 16 AUDIO
    TITLE "13:cjc020_2659"
    INDEX 01 00:15:34
  TRACK 17 AUDIO
    TITLE "0:"
    INDEX 01 00:16:51
  TRACK 18 AUDIO
    TITLE "14:cjc020_2660"
    INDEX 01 00:16:53
  TRACK 19 AUDIO
    TITLE "0:"
    INDEX 01 00:19:22
  TRACK 20 AUDIO
    TITLE "13:cjc020_2661"
    INDEX 01 00:20:02
  TRACK 21 AUDIO
    TITLE "0:"
    INDEX 01 00:21:19
  TRACK 22 AUDIO
    TITLE "14:cjc020_2662"
    INDEX 01 00:21:23
  TRACK 23 AUDIO
    TITLE "0:"
    INDEX 01 00:24:57
  TRACK 24 AUDIO
    TITLE "13:cjc020_2663"
    INDEX 01 00:25:39
  TRACK 25 AUDIO
    TITLE "0:"
    INDEX 01 00:26:54
  TRACK 26 AUDIO
    TITLE "14:cjc020_2664"
    INDEX 01 00:26:56
  TRACK 27 AUDIO
    TITLE "0:"
    INDEX 01 00:29:74
  TRACK 28 AUDIO
    TITLE "13:cjc020_2665"
    INDEX 01 00:30:55
  TRACK 29 AUDIO
    TITLE "0:"
    INDEX 01 00:31:57
  TRACK 30 AUDIO
    TITLE "14:cjc020_2666"
    INDEX 01 00:31:61
  TRACK 31 AUDIO
    TITLE "0:"
    INDEX 01 00:34:38
  TRACK 32 AUDIO
    TITLE "13:cjc020_2667"
    INDEX 01 00:35:17
  TRACK 33 AUDIO
    TITLE "0:"
    INDEX 01 00:36:38
  TRACK 34 AUDIO
    TITLE "14:cjc020_2668"
    INDEX 01 00:36:42
  TRACK 35 AUDIO
    TITLE "0:"
    INDEX 01 00:41:55
  TRACK 36 AUDIO
    TITLE "13:cjc020_2669"
    INDEX 01 00:42:31
  TRACK 37 AUDIO
    TITLE "0:"
    INDEX 01 00:43:33
  TRACK 38 AUDIO
    TITLE "14:cjc020_2670"
    INDEX 01 00:43:39
  TRACK 39 AUDIO
    TITLE "0:"
    INDEX 01 00:46:00
  TRACK 40 AUDIO
    TITLE "13:cjc020_2671"
    INDEX 01 00:46:60
  TRACK 41 AUDIO
    TITLE "0:"
    INDEX 01 00:48:02
  TRACK 42 AUDIO
    TITLE "14:cjc020_2672"
    INDEX 01 00:48:06
  TRACK 43 AUDIO
    TITLE "0:"
    INDEX 01 00:52:14
  TRACK 44 AUDIO
    TITLE "13:cjc020_2673"
    INDEX 01 00:52:67
  TRACK 45 AUDIO
    TITLE "0:"
    INDEX 01 00:53:72
  TRACK 46 AUDIO
    TITLE "14:cjc020_2674"
    INDEX 01 00:53:74
  TRACK 47 AUDIO
    TITLE "0:"
    INDEX 01 00:58:36
  TRACK 48 AUDIO
    TITLE "13:cjc020_2675"
    INDEX 01 00:59:16
  TRACK 49 AUDIO
    TITLE "0:"
    INDEX 01 01:00:41
  TRACK 50 AUDIO
    TITLE "14:cjc020_2676"
    INDEX 01 01:00:45
  TRACK 51 AUDIO
    TITLE "0:"
    INDEX 01 01:04:05
  TRACK 52 AUDIO
    TITLE "13:cjc020_2677"
    INDEX 01 01:04:56
  TRACK 53 AUDIO
    TITLE "0:"
    INDEX 01 01:05:62
  TRACK 54 AUDIO
    TITLE "14:cjc020_2678"
    INDEX 01 01:05:66
  TRACK 55 AUDIO
    TITLE "0:"
    INDEX 01 01:08:36
  TRACK 56 AUDIO
    TITLE "13:cjc020_2679"
    INDEX 01 01:09:14
  TRACK 57 AUDIO
    TITLE "0:"
    INDEX 01 01:10:26
  TRACK 58 AUDIO
    TITLE "14:cjc020_2680"
    INDEX 01 01:10:31
  TRACK 59 AUDIO
    TITLE "0:"
    INDEX 01 01:11:51
  TRACK 60 AUDIO
    TITLE "13:cjc020_2681"
    INDEX 01 01:12:30
  TRACK 61 AUDIO
    TITLE "0:"
    INDEX 01 01:13:30
  TRACK 62 AUDIO
    TITLE "14:cjc020_2682"
    INDEX 01 01:13:32
  TRACK 63 AUDIO
    TITLE "0:"
    INDEX 01 01:17:37
  TRACK 64 AUDIO
    TITLE "13:cjc020_2683"
    INDEX 01 01:18:17
  TRACK 65 AUDIO
    TITLE "0:"
    INDEX 01 01:19:21
  TRACK 66 AUDIO
    TITLE "14:cjc020_2684"
    INDEX 01 01:19:23
  TRACK 67 AUDIO
    TITLE "0:"
    INDEX 01 01:21:47
  TRACK 68 AUDIO
    TITLE "12:cjc020_2685"
    INDEX 01 01:23:22
  TRACK 69 AUDIO
    TITLE "0:"
    INDEX 01 01:24:47
  TRACK 70 AUDIO
    TITLE "13:cjc020_2686"
    INDEX 01 01:25:51
  TRACK 71 AUDIO
    TITLE "0:"
    INDEX 01 01:26:60
  TRACK 72 AUDIO
    TITLE "14:cjc020_2687"
    INDEX 01 01:26:64
  TRACK 73 AUDIO
    TITLE "0:"
    INDEX 01 01:27:65
  TRACK 74 AUDIO
    TITLE "13:cjc020_2688"
    INDEX 01 01:28:47
  TRACK 75 AUDIO
    TITLE "0:"
    INDEX 01 01:29:74
  TRACK 76 AUDIO
    TITLE "14:cjc020_2689"
    INDEX 01 01:30:05
  TRACK 77 AUDIO
    TITLE "0:"
    INDEX 01 01:31:24
  TRACK 78 AUDIO
    TITLE "13:cjc020_2690"
    INDEX 01 01:32:00
  TRACK 79 AUDIO
    TITLE "0:"
    INDEX 01 01:32:74
  TRACK 80 AUDIO
    TITLE "14:cjc020_2691"
    INDEX 01 01:33:05
  TRACK 81 AUDIO
    TITLE "0:"
    INDEX 01 01:34:03
  TRACK 82 AUDIO
    TITLE "13:cjc020_2692"
    INDEX 01 01:34:55
  TRACK 83 AUDIO
    TITLE "0:"
    INDEX 01 01:36:15
  TRACK 84 AUDIO
    TITLE "14:cjc020_2693"
    INDEX 01 01:36:19
  TRACK 85 AUDIO
    TITLE "0:"
    INDEX 01 01:38:04
  TRACK 86 AUDIO
    TITLE "13:cjc020_2694"
    INDEX 01 01:38:57
  TRACK 87 AUDIO
    TITLE "0:"
    INDEX 01 01:40:03
  TRACK 88 AUDIO
    TITLE "14:cjc020_2695"
    INDEX 01 01:40:11
  TRACK 89 AUDIO
    TITLE "0:"
    INDEX 01 01:41:42
  TRACK 90 AUDIO
    TITLE "13:cjc020_2696"
    INDEX 01 01:42:20
  TRACK 91 AUDIO
    TITLE "0:"
    INDEX 01 01:43:21
  TRACK 92 AUDIO
    TITLE "14:cjc020_2697"
    INDEX 01 01:43:25
  TRACK 93 AUDIO
    TITLE "0:"
    INDEX 01 01:44:48
